<?xml version="1.0" encoding="UTF-8" standalone="no"?>
<svg
   xmlns:dc="http://purl.org/dc/elements/1.1/"
   xmlns:cc="http://creativecommons.org/ns#"
   xmlns:rdf="http://www.w3.org/1999/02/22-rdf-syntax-ns#"
   xmlns:svg="http://www.w3.org/2000/svg"
   xmlns="http://www.w3.org/2000/svg"
   xmlns:xlink="http://www.w3.org/1999/xlink"
   width="481.12173"
   height="481.12173"
   viewBox="0 0 101.83743 101.83744"
   version="1.1"
   id="svg7651">
  <defs
     id="defs7645">
    <filter
       style="color-interpolation-filters:sRGB"
       id="filter6647">
      <feFlood
         flood-opacity="0.305882"
         flood-color="rgb(0,0,0)"
         result="flood"
         id="feFlood6649" />
      <feComposite
         in="flood"
         in2="SourceGraphic"
         operator="in"
         result="composite1"
         id="feComposite6651" />
      <feGaussianBlur
         in="composite1"
         stdDeviation="59.4"
         result="blur"
         id="feGaussianBlur6653" />
      <feOffset
         dx="50"
         dy="-50"
         result="offset"
         id="feOffset6655" />
      <feComposite
         in="SourceGraphic"
         in2="offset"
         operator="over"
         result="composite2"
         id="feComposite6657" />
    </filter>
    <filter
       style="color-interpolation-filters:sRGB"
       id="filter6359">
      <feFlood
         flood-opacity="1"
         flood-color="rgb(146,124,40)"
         result="flood"
         id="feFlood6361" />
      <feComposite
         in="flood"
         in2="SourceGraphic"
         operator="in"
         result="composite1"
         id="feComposite6363" />
      <feGaussianBlur
         in="composite1"
         stdDeviation="5"
         result="blur"
         id="feGaussianBlur6365" />
      <feOffset
         dx="6"
         dy="6"
         result="offset"
         id="feOffset6367" />
      <feComposite
         in="SourceGraphic"
         in2="offset"
         operator="over"
         result="composite2"
         id="feComposite6369" />
    </filter>
    <filter
       style="color-interpolation-filters:sRGB"
       id="filter7463">
      <feFlood
         flood-opacity="1"
         flood-color="rgb(146,124,40)"
         result="flood"
         id="feFlood7453" />
      <feComposite
         in="flood"
         in2="SourceGraphic"
         operator="in"
         result="composite1"
         id="feComposite7455" />
      <feGaussianBlur
         in="composite1"
         stdDeviation="5"
         result="blur"
         id="feGaussianBlur7457" />
      <feOffset
         dx="6"
         dy="6"
         result="offset"
         id="feOffset7459" />
      <feComposite
         in="SourceGraphic"
         in2="offset"
         operator="over"
         result="composite2"
         id="feComposite7461" />
    </filter>
    <filter
       id="filter4952"
       style="color-interpolation-filters:sRGB">
      <feFlood
         id="feFlood4942"
         result="flood"
         flood-color="rgb(0,0,0)"
         flood-opacity="0.0588235" />
      <feComposite
         id="feComposite4944"
         result="composite1"
         operator="in"
         in2="SourceGraphic"
         in="flood" />
      <feGaussianBlur
         id="feGaussianBlur4946"
         result="blur"
         stdDeviation="1"
         in="composite1" />
      <feOffset
         id="feOffset4948"
         result="offset"
         dy="1"
         dx="1" />
      <feComposite
         id="feComposite4950"
         result="composite2"
         operator="over"
         in2="offset"
         in="SourceGraphic" />
    </filter>
    <filter
       id="filter5072"
       style="color-interpolation-filters:sRGB">
      <feFlood
         id="feFlood5062"
         result="flood"
         flood-color="rgb(0,0,0)"
         flood-opacity="0.392157" />
      <feComposite
         id="feComposite5064"
         result="composite1"
         operator="in"
         in2="SourceGraphic"
         in="flood" />
      <feGaussianBlur
         id="feGaussianBlur5066"
         result="blur"
         stdDeviation="1"
         in="composite1" />
      <feOffset
         id="feOffset5068"
         result="offset"
         dy="1"
         dx="1" />
      <feComposite
         id="feComposite5070"
         result="composite2"
         operator="over"
         in2="offset"
         in="SourceGraphic" />
    </filter>
    <filter
       id="filter5084"
       style="color-interpolation-filters:sRGB">
      <feFlood
         id="feFlood5074"
         result="flood"
         flood-color="rgb(0,0,0)"
         flood-opacity="0.392157" />
      <feComposite
         id="feComposite5076"
         result="composite1"
         operator="in"
         in2="SourceGraphic"
         in="flood" />
      <feGaussianBlur
         id="feGaussianBlur5078"
         result="blur"
         stdDeviation="1"
         in="composite1" />
      <feOffset
         id="feOffset5080"
         result="offset"
         dy="1"
         dx="1" />
      <feComposite
         id="feComposite5082"
         result="composite2"
         operator="over"
         in2="offset"
         in="SourceGraphic" />
    </filter>
    <filter
       id="filter5096"
       style="color-interpolation-filters:sRGB">
      <feFlood
         id="feFlood5086"
         result="flood"
         flood-color="rgb(0,0,0)"
         flood-opacity="0.392157" />
      <feComposite
         id="feComposite5088"
         result="composite1"
         operator="in"
         in2="SourceGraphic"
         in="flood" />
      <feGaussianBlur
         id="feGaussianBlur5090"
         result="blur"
         stdDeviation="1"
         in="composite1" />
      <feOffset
         id="feOffset5092"
         result="offset"
         dy="1"
         dx="1" />
      <feComposite
         id="feComposite5094"
         result="composite2"
         operator="over"
         in2="offset"
         in="SourceGraphic" />
    </filter>
  </defs>
  <metadata
     id="metadata7648">
    <rdf:RDF>
      <cc:Work
         rdf:about="">
        <dc:format>image/svg+xml</dc:format>
        <dc:type
           rdf:resource="http://purl.org/dc/dcmitype/StillImage" />
        <dc:title></dc:title>
      </cc:Work>
    </rdf:RDF>
  </metadata>
  <g
     id="layer1"
     transform="matrix(1.2702734,0,0,1.2702734,103.7413,-120.90892)">
    <path
       xlink:href="#path11514-9"
       style="fill:#668000;fill-opacity:1;fill-rule:evenodd;stroke:#000000;stroke-width:45.55182266;stroke-linecap:round;stroke-linejoin:miter;stroke-miterlimit:4;stroke-dasharray:none;stroke-opacity:1"
       id="background-green"
       d="m -853.86914,876.73242 c -416.24546,0 -815.44136,165.35358 -1109.77146,459.68358 -294.33,294.33 -459.6836,693.5265 -459.6836,1109.7715 0,416.246 165.3536,815.4434 459.6836,1109.7734 294.3301,294.33 693.526,459.6836 1109.77146,459.6836 H 2437.7812 c 416.2457,0 815.4434,-165.3536 1109.7735,-459.6836 294.33,-294.33 459.6836,-693.5274 459.6836,-1109.7734 0,-416.245 -165.3536,-815.4415 -459.6836,-1109.7715 C 3253.2246,1042.086 2854.027,876.73242 2437.7812,876.73242 Z"
       transform="matrix(0,0.01237929,-0.01569785,0,-3.1837339,125.46437)" />
    <path
       style="fill:#decd87;fill-opacity:1;fill-rule:evenodd;stroke:#000000;stroke-width:0.63499999;stroke-linecap:round;stroke-linejoin:miter;stroke-miterlimit:4;stroke-dasharray:none;stroke-opacity:1"
       d="m -25.436761,102.44377 c -4.282408,-3.506034 -10.090632,-5.475705 -16.146872,-5.475705 -6.056257,0 -11.864448,1.969671 -16.146856,5.475705 -4.282407,3.50604 -6.68824,8.26124 -6.68824,13.21952 v 39.20988 c 0,4.95829 2.405833,9.71349 6.68824,13.21953 4.282408,3.50604 10.090599,5.47571 16.146856,5.47571 6.05624,0 11.864464,-1.96967 16.146872,-5.47571 4.282392,-3.50604 6.688224,-8.26124 6.688224,-13.21953 v -39.20988 c 0,-4.95828 -2.405832,-9.71348 -6.688224,-13.21952 z"
       id="background-kahki" />
    <g
       style="filter:url(#filter5072)"
       id="tree-left">
      <path
         id="l-02"
         d="m -47.983631,119.99344 c -1.989114,-1.12073 -3.045843,-3.52759 -2.366171,-5.73383 0.702405,-2.28004 3.168153,-3.73663 5.487269,-2.99343 1.967911,0.63066 3.223597,2.77979 2.54751,4.78537 -0.558224,1.65595 -2.391835,2.71156 -4.083454,2.10159 -1.344262,-0.48472 -2.201243,-2.00469 -1.655673,-3.38155 0.409326,-1.03302 1.619287,-1.69418 2.679636,-1.20975 0.722536,0.33009 1.194405,1.23881 0.763841,1.97772 -0.240706,0.41309 -0.879705,0.71479 -1.275823,0.31793 -0.146171,-0.14645 -0.217304,-0.65093 0.127996,-0.57392"
         style="fill:none;fill-rule:evenodd;stroke:#000000;stroke-width:0.63499999;stroke-linecap:round;stroke-linejoin:miter;stroke-miterlimit:4;stroke-dasharray:none;stroke-opacity:1" />
      <path
         id="path6858"
         d="m -45.152939,111.16938 c 1.022184,0.11628 2.065515,-0.36867 2.58198,-1.26915 0.611008,-1.06533 0.311877,-2.52184 -0.797294,-3.1275 -0.881415,-0.48129 -2.080364,-0.22382 -2.55045,0.70479 -0.352694,0.69672 -0.136669,1.64133 0.612286,1.97341 0.510347,0.22628 1.208283,0.0511 1.39636,-0.51979 0.105144,-0.31912 -0.03391,-0.79587 -0.427278,-0.81931 -0.145156,-0.009 -0.443691,0.18901 -0.24227,0.33477"
         style="fill:none;fill-rule:evenodd;stroke:#000000;stroke-width:0.63500011;stroke-linecap:round;stroke-linejoin:miter;stroke-miterlimit:4;stroke-dasharray:none;stroke-opacity:1" />
      <path
         id="path6860"
         d="m -50.539172,115.37167 c 0.08089,-1.02559 -0.439828,-2.05154 -1.357622,-2.53658 -1.085806,-0.57383 -2.531108,-0.22454 -3.098075,0.9049 -0.450546,0.89752 -0.151801,2.08685 0.792504,2.52457 0.708488,0.3284 1.645071,0.0799 1.951067,-0.68012 0.208509,-0.51786 0.0093,-1.20932 -0.567725,-1.37756 -0.322566,-0.094 -0.794222,0.0614 -0.80406,0.45533 -0.0036,0.14537 0.204229,0.4369 0.342946,0.23056"
         style="fill:none;fill-rule:evenodd;stroke:#000000;stroke-width:0.63499987;stroke-linecap:round;stroke-linejoin:miter;stroke-miterlimit:4;stroke-dasharray:none;stroke-opacity:1" />
      <path
         id="path6862"
         d="m -48.380891,111.68921 c 0.747733,-0.96517 0.898662,-2.32222 0.303497,-3.40088 -0.704116,-1.27612 -2.365766,-1.8701 -3.663474,-1.11821 -1.031238,0.59749 -1.508785,1.97222 -0.856513,3.02118 0.489384,0.787 1.580609,1.14988 2.378884,0.59481 0.543954,-0.37824 0.796235,-1.19412 0.333108,-1.73659 -0.258909,-0.30327 -0.828152,-0.45596 -1.094294,-0.0714 -0.09821,0.1419 -0.08165,0.56649 0.190297,0.452"
         style="fill:none;fill-rule:evenodd;stroke:#000000;stroke-width:0.63499999;stroke-linecap:round;stroke-linejoin:miter;stroke-miterlimit:4;stroke-dasharray:none;stroke-opacity:1" />
      <path
         id="path6864"
         d="m -53.525492,122.04779 c 0.257637,-1.19343 -0.192242,-2.48261 -1.194851,-3.19851 -1.186147,-0.84695 -2.941377,-0.66514 -3.78717,0.57341 -0.672118,0.98423 -0.509196,2.4304 0.532091,3.09484 0.781252,0.49851 1.922191,0.35459 2.402505,-0.49078 0.327291,-0.57604 0.202518,-1.42087 -0.449458,-1.71017 -0.364483,-0.16173 -0.94385,-0.0536 -1.01784,0.40814 -0.0273,0.1704 0.170979,0.54621 0.366824,0.32551"
         style="fill:none;fill-rule:evenodd;stroke:#000000;stroke-width:0.63499999;stroke-linecap:round;stroke-linejoin:miter;stroke-miterlimit:4;stroke-dasharray:none;stroke-opacity:1" />
      <path
         id="path6866"
         d="m -45.356616,106.77182 c -0.667186,0.37837 -1.524518,0.35052 -2.141844,-0.11628 -0.730333,-0.55226 -0.950643,-1.63872 -0.366752,-2.37819 0.463995,-0.58763 1.361615,-0.76128 1.955345,-0.26163 0.445461,0.37487 0.573234,1.08593 0.156508,1.5325 -0.283963,0.30431 -0.813893,0.38801 -1.109664,0.0514 -0.165349,-0.18818 -0.209238,-0.55583 0.05374,-0.68682 0.09704,-0.0483 0.359561,3e-5 0.263982,0.15886"
         style="fill:none;fill-rule:evenodd;stroke:#000000;stroke-width:0.63500005;stroke-linecap:round;stroke-linejoin:miter;stroke-miterlimit:4;stroke-dasharray:none;stroke-opacity:1" />
      <path
         id="path6868"
         d="m -57.164192,122.78272 c 0.731524,0.23061 1.295228,0.87716 1.374102,1.64708 0.09331,0.91086 -0.551893,1.81232 -1.490994,1.8887 -0.746267,0.0607 -1.48492,-0.47806 -1.523677,-1.25308 -0.02908,-0.58148 0.40437,-1.15945 1.015183,-1.15865 0.416216,5.4e-4 0.83852,0.33143 0.79362,0.77728 -0.0251,0.24924 -0.264318,0.53184 -0.539373,0.42859 -0.101498,-0.0381 -0.244943,-0.26323 -0.06356,-0.30147"
         style="fill:none;fill-rule:evenodd;stroke:#000000;stroke-width:0.63499993;stroke-linecap:round;stroke-linejoin:miter;stroke-miterlimit:4;stroke-dasharray:none;stroke-opacity:1" />
      <path
         id="path6870"
         d="m -58.240752,119.02246 c 0.290075,-0.71004 0.152962,-1.5568 -0.388852,-2.10946 -0.640999,-0.65382 -1.746701,-0.73358 -2.405551,-0.06 -0.523562,0.53524 -0.581156,1.44769 -0.0098,1.97275 0.42869,0.39394 1.150239,0.42986 1.539944,-0.0405 0.265549,-0.3205 0.280886,-0.85678 -0.09075,-1.10714 -0.207758,-0.13997 -0.577994,-0.13655 -0.674336,0.141 -0.03555,0.10242 0.04595,0.35662 0.19127,0.24154"
         style="fill:none;fill-rule:evenodd;stroke:#000000;stroke-width:0.63500011;stroke-linecap:round;stroke-linejoin:miter;stroke-miterlimit:4;stroke-dasharray:none;stroke-opacity:1" />
      <path
         id="path6872"
         d="m -54.122948,119.28889 c 0.43311,0.29602 1.007674,0.36226 1.484718,0.13212 0.591422,-0.28532 0.929514,-1.02668 0.598769,-1.63101 -0.225374,-0.41179 -0.78111,-0.65117 -1.198275,-0.36587 -0.233215,0.15949 -0.383789,0.54899 -0.132978,0.76554 0.09255,0.0799 0.392929,0.10033 0.332813,-0.0999"
         style="fill:none;fill-rule:evenodd;stroke:#000000;stroke-width:0.63500005;stroke-linecap:round;stroke-linejoin:miter;stroke-miterlimit:4;stroke-dasharray:none;stroke-opacity:1" />
      <path
         id="path6874"
         d="m -55.176266,115.07011 c 0.203513,0.48352 0.153618,1.05974 -0.167194,1.48118 -0.39773,0.52249 -1.191695,0.70564 -1.717753,0.26083 -0.358463,-0.30311 -0.481974,-0.89547 -0.119084,-1.24722 0.202872,-0.19665 0.614604,-0.26636 0.776678,0.0227 0.05981,0.10665 0.01979,0.40505 -0.164399,0.30614"
         style="fill:none;fill-rule:evenodd;stroke:#000000;stroke-width:0.63500011;stroke-linecap:round;stroke-linejoin:miter;stroke-miterlimit:4;stroke-dasharray:none;stroke-opacity:1" />
      <path
         id="path6876"
         d="m -58.364278,122.20219 c -0.391473,-0.34922 -0.952758,-0.48875 -1.455424,-0.32184 -0.623187,0.20694 -1.053758,0.89871 -0.803426,1.54053 0.170579,0.43734 0.69094,0.74615 1.141313,0.51684 0.251779,-0.12819 0.451164,-0.49511 0.230266,-0.7421 -0.08152,-0.0911 -0.376777,-0.14999 -0.342895,0.0563"
         style="fill:none;fill-rule:evenodd;stroke:#000000;stroke-width:0.63499993;stroke-linecap:round;stroke-linejoin:miter;stroke-miterlimit:4;stroke-dasharray:none;stroke-opacity:1" />
      <path
         style="fill:none;fill-rule:evenodd;stroke:#000000;stroke-width:0.63500011;stroke-linecap:round;stroke-linejoin:miter;stroke-miterlimit:4;stroke-dasharray:none;stroke-opacity:1"
         d="m -52.865054,109.55537 c -0.168027,-0.67921 -0.724358,-1.22946 -1.420783,-1.34539 -0.823912,-0.13715 -1.681595,0.3986 -1.804947,1.2492 -0.09802,0.67593 0.350149,1.37929 1.05352,1.45898 0.527722,0.0598 1.07875,-0.3017 1.113026,-0.85784 0.02336,-0.37896 -0.253696,-0.78239 -0.66217,-0.76706 -0.228355,0.009 -0.499345,0.21016 -0.421103,0.46649 0.02887,0.0946 0.225607,0.23808 0.270818,0.0751"
         id="path6878" />
      <path
         style="fill:none;fill-rule:evenodd;stroke:#000000;stroke-width:0.63500011;stroke-linecap:round;stroke-linejoin:miter;stroke-miterlimit:4;stroke-dasharray:none;stroke-opacity:1"
         d="m -55.922225,110.3565 c 0.235157,0.26832 0.326688,0.65088 0.210158,0.99173 -0.14447,0.42258 -0.617504,0.71126 -1.052497,0.53717 -0.296409,-0.11863 -0.50331,-0.47437 -0.34466,-0.77928 0.08869,-0.17047 0.339421,-0.30387 0.506072,-0.15216 0.0615,0.056 0.09975,0.25714 -0.04035,0.23286"
         id="path6880" />
      <path
         id="path6884"
         d="m -43.155462,106.84507 c -0.356692,-0.205 -0.620332,-0.56388 -0.677939,-0.97462 -0.07865,-0.56075 0.286531,-1.19271 0.895651,-1.21726 0.340525,-0.0137 0.766814,0.25461 0.680188,0.64481 -0.03197,0.14398 -0.307854,0.38014 -0.39396,0.14311"
         style="fill:none;fill-rule:evenodd;stroke:#000000;stroke-width:0.63500011;stroke-linecap:round;stroke-linejoin:miter;stroke-miterlimit:4;stroke-dasharray:none;stroke-opacity:1" />
      <path
         id="path6886"
         d="m -57.450178,115.88803 c 0.267577,-0.3125 0.395995,-0.73889 0.312897,-1.14524 -0.113447,-0.55476 -0.668972,-1.02817 -1.251219,-0.84756 -0.325501,0.10096 -0.637483,0.49643 -0.425331,0.83517 0.07829,0.12501 0.417274,0.25528 0.419137,0.003"
         style="fill:none;fill-rule:evenodd;stroke:#000000;stroke-width:0.63499993;stroke-linecap:round;stroke-linejoin:miter;stroke-miterlimit:4;stroke-dasharray:none;stroke-opacity:1" />
      <path
         id="path6888"
         d="m -50.924003,106.84798 c 0.378233,-0.16185 0.682063,-0.4874 0.787346,-0.88858 0.143735,-0.54769 -0.144971,-1.21805 -0.747033,-1.31372 -0.336579,-0.0535 -0.791342,0.16312 -0.750979,0.56077 0.0149,0.14674 0.261248,0.41356 0.374503,0.18824"
         style="fill:none;fill-rule:evenodd;stroke:#000000;stroke-width:0.63500011;stroke-linecap:round;stroke-linejoin:miter;stroke-miterlimit:4;stroke-dasharray:none;stroke-opacity:1" />
      <path
         id="path6890"
         d="m -45.998464,103.95586 c 0.36983,0.18022 0.814814,0.19709 1.187126,0.0143 0.508293,-0.24954 0.826495,-0.90641 0.505037,-1.42438 -0.179709,-0.28957 -0.641012,-0.49187 -0.91539,-0.20123 -0.101249,0.10726 -0.141927,0.46813 0.102588,0.40641"
         style="fill:none;fill-rule:evenodd;stroke:#000000;stroke-width:0.63499999;stroke-linecap:round;stroke-linejoin:miter;stroke-miterlimit:4;stroke-dasharray:none;stroke-opacity:1" />
      <path
         id="l-01"
         style="fill:none;fill-opacity:0.18292685;stroke:#000000;stroke-width:0.63499999;stroke-linecap:round;stroke-miterlimit:4;stroke-dasharray:none;stroke-dashoffset:0;stroke-opacity:1"
         d="m -41.57442,168.33339 c -4.777029,0 -9.358414,-1.89767 -12.736277,-5.27554 -3.377878,-3.37787 -5.275538,-7.95925 -5.275538,-12.73628 0,-4.77703 1.89766,-9.35841 5.275538,-12.73628 1.860168,-1.86018 4.085338,-3.27146 6.683647,-4.21047 1.25629,-0.38809 2.007878,-0.96443 2.506886,-1.53571 1.691167,-2.2121 1.26933,-6.02467 0.630321,-8.33531 -0.823441,-2.67293 -3.714075,-4.38051 -6.432812,-3.50924 -2.307013,0.73932 -3.779071,3.25878 -2.986485,5.60995 0.654415,1.9413 2.803984,3.17881 4.787094,2.46373 1.575902,-0.56825 2.580555,-2.35013 1.940976,-3.96424 -0.479861,-1.21103 -1.898317,-1.98611 -3.14138,-1.41822 -0.847041,0.38697 -1.400222,1.45228 -0.895462,2.31852 0.282184,0.48427 1.031291,0.83796 1.495664,0.37271 0.171358,-0.17168 0.254752,-0.76309 -0.15005,-0.67281" />
    </g>
    <g
       id="seed"
       style="fill:none;fill-opacity:1;stroke:#000000;stroke-width:0.63499999;stroke-linecap:butt;stroke-miterlimit:4;stroke-dasharray:none;stroke-opacity:1;filter:url(#filter5096)">
      <ellipse
         id="ellipse6792"
         style="fill:none;fill-opacity:1;stroke:#000000;stroke-width:0.63499999;stroke-linecap:butt;stroke-linejoin:miter;stroke-miterlimit:4;stroke-dasharray:none;stroke-opacity:1"
         cx="-41.574451"
         cy="150.32156"
         rx="8.0076618"
         ry="8.0076628" />
      <ellipse
         id="ellipse6794"
         style="fill:none;fill-opacity:1;stroke:#000000;stroke-width:0.63499999;stroke-linecap:butt;stroke-linejoin:miter;stroke-miterlimit:4;stroke-dasharray:none;stroke-opacity:1"
         cx="-41.574451"
         cy="142.3139"
         rx="8.0076618"
         ry="8.0076628" />
      <ellipse
         id="ellipse6796"
         style="fill:none;fill-opacity:1;stroke:#000000;stroke-width:0.63499999;stroke-linecap:butt;stroke-linejoin:miter;stroke-miterlimit:4;stroke-dasharray:none;stroke-opacity:1"
         cx="-41.574451"
         cy="158.32924"
         rx="8.0076618"
         ry="8.0076628" />
      <ellipse
         id="ellipse6798"
         style="fill:none;fill-opacity:1;stroke:#000000;stroke-width:0.63499999;stroke-linecap:butt;stroke-linejoin:miter;stroke-miterlimit:4;stroke-dasharray:none;stroke-opacity:1"
         cx="-48.510788"
         cy="146.31775"
         rx="8.0076618"
         ry="8.0076628" />
      <ellipse
         id="ellipse6800"
         style="fill:none;fill-opacity:1;stroke:#000000;stroke-width:0.63499999;stroke-linecap:butt;stroke-linejoin:miter;stroke-miterlimit:4;stroke-dasharray:none;stroke-opacity:1"
         cx="-34.638035"
         cy="146.31775"
         rx="8.0076618"
         ry="8.0076628" />
      <ellipse
         id="ellipse6802"
         style="fill:none;fill-opacity:1;stroke:#000000;stroke-width:0.63499999;stroke-linecap:butt;stroke-linejoin:miter;stroke-miterlimit:4;stroke-dasharray:none;stroke-opacity:1"
         cx="-48.510788"
         cy="154.32541"
         rx="8.0076618"
         ry="8.0076628" />
      <ellipse
         id="ellipse6804"
         style="fill:none;fill-opacity:1;stroke:#000000;stroke-width:0.63499999;stroke-linecap:butt;stroke-linejoin:miter;stroke-miterlimit:4;stroke-dasharray:none;stroke-opacity:1"
         cx="-34.638035"
         cy="154.32541"
         rx="8.0076618"
         ry="8.0076628" />
      <path
         style="fill:none;fill-opacity:1;stroke:#000000;stroke-width:0.63499999;stroke-linecap:butt;stroke-linejoin:miter;stroke-miterlimit:4;stroke-dasharray:none;stroke-opacity:1"
         d="m -27.702679,150.3225 c -4.422511,0 -8.007666,-3.58515 -8.007666,-8.00766 0,-1.46453 0.393173,-2.83724 1.079696,-4.01832"
         id="path6806" />
      <path
         id="path6808"
         d="m -34.639739,138.30982 c -2.211256,3.83001 -7.108666,5.14226 -10.93867,2.93101 -1.268317,-0.73227 -2.260544,-1.7591 -2.940127,-2.9442"
         style="fill:none;fill-opacity:1;stroke:#000000;stroke-width:0.63499999;stroke-linecap:butt;stroke-linejoin:miter;stroke-miterlimit:4;stroke-dasharray:none;stroke-opacity:1" />
      <path
         id="path6810"
         d="m -48.494876,138.30868 c 2.211256,3.83 0.898984,8.72741 -2.93102,10.93867 -1.268317,0.73226 -2.653685,1.07813 -4.019806,1.07412"
         style="fill:none;fill-opacity:1;stroke:#000000;stroke-width:0.63499999;stroke-linecap:butt;stroke-linejoin:miter;stroke-miterlimit:4;stroke-dasharray:none;stroke-opacity:1" />
      <path
         id="path6812"
         d="m -34.639739,162.33332 c -2.211256,-3.83 -7.108666,-5.14226 -10.93867,-2.931 -1.268317,0.73226 -2.260544,1.7591 -2.940127,2.9442"
         style="fill:none;fill-opacity:1;stroke:#000000;stroke-width:0.63499999;stroke-linecap:butt;stroke-linejoin:miter;stroke-miterlimit:4;stroke-dasharray:none;stroke-opacity:1" />
      <path
         id="path6814"
         d="m -55.438155,150.3055 c 4.422512,-1e-5 8.00765,3.58515 8.007667,8.00766 0,1.46453 -0.393157,2.83723 -1.079696,4.01832"
         style="fill:none;fill-opacity:1;stroke:#000000;stroke-width:0.63499999;stroke-linecap:butt;stroke-linejoin:miter;stroke-miterlimit:4;stroke-dasharray:none;stroke-opacity:1" />
      <path
         style="fill:none;fill-opacity:1;stroke:#000000;stroke-width:0.63499999;stroke-linecap:butt;stroke-linejoin:miter;stroke-miterlimit:4;stroke-dasharray:none;stroke-opacity:1"
         d="m -27.711768,150.30733 c -4.422512,0 -8.00765,3.58516 -8.00765,8.00767 -1.7e-5,1.46453 0.393156,2.83723 1.079679,4.01832"
         id="path6816" />
      <path
         id="path6818"
         d="m -27.681562,158.36204 c -0.71417,-1.18846 -1.128804,-2.57805 -1.138779,-4.06502 -0.0098,-1.4645 0.374123,-2.83981 1.052721,-4.02547"
         style="fill:none;fill-opacity:1;stroke:#000000;stroke-width:0.63499999;stroke-linecap:butt;stroke-linejoin:miter;stroke-miterlimit:4;stroke-dasharray:none;stroke-opacity:1" />
      <path
         style="fill:none;fill-opacity:1;stroke:#000000;stroke-width:0.63499999;stroke-linecap:butt;stroke-linejoin:miter;stroke-miterlimit:4;stroke-dasharray:none;stroke-opacity:1"
         d="m -55.52221,158.39571 c 0.714169,-1.18846 1.12882,-2.57805 1.138795,-4.06502 0.0098,-1.4645 -0.374124,-2.83981 -1.052722,-4.02548"
         id="path6820" />
      <path
         id="path6822"
         d="m -55.588562,150.50452 c 0.714169,-1.18846 1.12882,-2.57805 1.138795,-4.06503 0.0098,-1.46449 -0.374124,-2.8398 -1.052722,-4.02547"
         style="fill:none;fill-opacity:1;stroke:#000000;stroke-width:0.63499999;stroke-linecap:butt;stroke-linejoin:miter;stroke-miterlimit:4;stroke-dasharray:none;stroke-opacity:1" />
      <path
         style="fill:none;fill-opacity:1;stroke:#000000;stroke-width:0.63499999;stroke-linecap:butt;stroke-linejoin:miter;stroke-miterlimit:4;stroke-dasharray:none;stroke-opacity:1"
         d="m -27.703893,150.32277 c -0.714169,-1.18846 -1.12882,-2.57805 -1.138795,-4.06503 -0.0098,-1.46449 0.374123,-2.8398 1.052721,-4.02547"
         id="path6824" />
      <path
         id="path6826"
         d="m -27.590287,142.28079 c -1.38632,0.0243 -2.79707,-0.31144 -4.089817,-1.04629 -1.27319,-0.72375 -2.272275,-1.74391 -2.959799,-2.92442"
         style="fill:none;fill-opacity:1;stroke:#000000;stroke-width:0.63499999;stroke-linecap:butt;stroke-linejoin:miter;stroke-miterlimit:4;stroke-dasharray:none;stroke-opacity:1" />
      <path
         style="fill:none;fill-opacity:1;stroke:#000000;stroke-width:0.63499999;stroke-linecap:butt;stroke-linejoin:miter;stroke-miterlimit:4;stroke-dasharray:none;stroke-opacity:1"
         d="m -34.639197,138.31127 c -1.386336,0.0243 -2.79707,-0.31144 -4.089817,-1.04629 -1.273206,-0.72375 -2.272276,-1.74391 -2.959799,-2.92442"
         id="path6828" />
      <path
         id="path6830"
         d="m -48.738429,138.31127 c 1.386319,0.0243 2.797069,-0.31144 4.089817,-1.04629 1.273189,-0.72375 2.272275,-1.74391 2.959799,-2.92442"
         style="fill:none;fill-opacity:1;stroke:#000000;stroke-width:0.63499999;stroke-linecap:butt;stroke-linejoin:miter;stroke-miterlimit:4;stroke-dasharray:none;stroke-opacity:1" />
      <path
         style="fill:none;fill-opacity:1;stroke:#000000;stroke-width:0.63499999;stroke-linecap:butt;stroke-linejoin:miter;stroke-miterlimit:4;stroke-dasharray:none;stroke-opacity:1"
         d="m -55.507559,142.38467 c 1.386238,0.0282 2.797923,-0.30352 4.092754,-1.0347 1.275241,-0.72013 2.277214,-1.73746 2.968069,-2.91602"
         id="path6832" />
      <path
         id="path6834"
         d="m -55.569956,158.38261 c 1.386253,-0.0282 2.797939,0.30352 4.092753,1.0347 1.275257,0.72013 2.277214,1.73745 2.968085,2.91601"
         style="fill:none;fill-opacity:1;stroke:#000000;stroke-width:0.63499999;stroke-linecap:butt;stroke-linejoin:miter;stroke-miterlimit:4;stroke-dasharray:none;stroke-opacity:1" />
      <path
         style="fill:none;fill-opacity:1;stroke:#000000;stroke-width:0.63499999;stroke-linecap:butt;stroke-linejoin:miter;stroke-miterlimit:4;stroke-dasharray:none;stroke-opacity:1"
         d="m -48.672668,162.3334 c 1.386254,-0.0282 2.797939,0.30351 4.092754,1.0347 1.275257,0.72013 2.277214,1.73746 2.968085,2.91601"
         id="path6836" />
      <path
         id="path6838"
         d="m -34.639739,162.33332 c -1.386254,-0.0282 -2.797939,0.30352 -4.092754,1.0347 -1.275257,0.72013 -2.277214,1.73746 -2.968084,2.91602"
         style="fill:none;fill-opacity:1;stroke:#000000;stroke-width:0.63499999;stroke-linecap:butt;stroke-linejoin:miter;stroke-miterlimit:4;stroke-dasharray:none;stroke-opacity:1" />
      <path
         style="fill:none;fill-opacity:1;stroke:#000000;stroke-width:0.63499999;stroke-linecap:butt;stroke-linejoin:miter;stroke-miterlimit:4;stroke-dasharray:none;stroke-opacity:1"
         d="m -27.684548,158.29675 c -1.386254,-0.0282 -2.797939,0.30351 -4.09277,1.03469 -1.275241,0.72014 -2.277198,1.73746 -2.968069,2.91602"
         id="path6840" />
      <path
         id="path6842"
         d="m -34.639739,146.31749 c -1.386319,0.0242 -2.797069,-0.31145 -4.0898,-1.0463 -1.273206,-0.72374 -2.272292,-1.74391 -2.959816,-2.92442"
         style="fill:none;fill-opacity:1;stroke:#000000;stroke-width:0.63499999;stroke-linecap:butt;stroke-linejoin:miter;stroke-miterlimit:4;stroke-dasharray:none;stroke-opacity:1" />
      <path
         style="fill:none;fill-opacity:1;stroke:#000000;stroke-width:0.63499999;stroke-linecap:butt;stroke-linejoin:miter;stroke-miterlimit:4;stroke-dasharray:none;stroke-opacity:1"
         d="m -48.738954,146.31749 c 1.386319,0.0242 2.797053,-0.31145 4.0898,-1.0463 1.273206,-0.72374 2.272292,-1.74391 2.959799,-2.92442"
         id="path6844" />
      <path
         id="path6846"
         d="m -48.509347,154.32527 c 1.386319,-0.0243 2.797069,0.31144 4.0898,1.04629 1.273206,0.72375 2.272292,1.74391 2.959815,2.92442"
         style="fill:none;fill-opacity:1;stroke:#000000;stroke-width:0.63499999;stroke-linecap:butt;stroke-linejoin:miter;stroke-miterlimit:4;stroke-dasharray:none;stroke-opacity:1" />
      <path
         style="fill:none;fill-opacity:1;stroke:#000000;stroke-width:0.63499999;stroke-linecap:butt;stroke-linejoin:miter;stroke-miterlimit:4;stroke-dasharray:none;stroke-opacity:1"
         d="m -34.639739,154.32566 c -1.386319,-0.0243 -2.797069,0.31145 -4.0898,1.0463 -1.273206,0.72374 -2.272292,1.7439 -2.959816,2.92441"
         id="path6848" />
      <path
         id="path6850"
         d="m -34.639755,146.31802 c -0.71417,1.18846 -1.128804,2.57805 -1.13878,4.06503 -0.0098,1.46449 0.374124,2.8398 1.052722,4.02547"
         style="fill:none;fill-opacity:1;stroke:#000000;stroke-width:0.63499999;stroke-linecap:butt;stroke-linejoin:miter;stroke-miterlimit:4;stroke-dasharray:none;stroke-opacity:1" />
      <path
         style="fill:none;fill-opacity:1;stroke:#000000;stroke-width:0.63499999;stroke-linecap:butt;stroke-linejoin:miter;stroke-miterlimit:4;stroke-dasharray:none;stroke-opacity:1"
         d="m -48.595405,146.23477 c 0.71417,1.18846 1.128804,2.57805 1.138779,4.06503 0.0098,1.46449 -0.374123,2.8398 -1.052721,4.02547"
         id="path6852" />
      <path
         style="fill:none;fill-opacity:1;stroke:#000000;stroke-width:0.63499999;stroke-linecap:butt;stroke-linejoin:miter;stroke-miterlimit:4;stroke-dasharray:none;stroke-opacity:1"
         d="m -41.602756,142.43106 c -0.714153,-1.18846 -1.128803,-2.57805 -1.138779,-4.06503 -0.0098,-1.46449 0.374124,-2.8398 1.052722,-4.02547"
         id="path6938" />
      <path
         id="path6940"
         d="m -41.774887,142.43106 c 0.714169,-1.18846 1.12882,-2.57805 1.138796,-4.06503 0.0098,-1.46449 -0.374124,-2.8398 -1.052722,-4.02547"
         style="fill:none;fill-opacity:1;stroke:#000000;stroke-width:0.63499999;stroke-linecap:butt;stroke-linejoin:miter;stroke-miterlimit:4;stroke-dasharray:none;stroke-opacity:1" />
      <path
         id="path6942"
         d="m -41.373674,166.38648 c -0.71417,-1.18846 -1.128804,-2.57805 -1.13878,-4.06502 -0.0098,-1.4645 0.374124,-2.83981 1.052722,-4.02548"
         style="fill:none;fill-opacity:1;stroke:#000000;stroke-width:0.63499999;stroke-linecap:butt;stroke-linejoin:miter;stroke-miterlimit:4;stroke-dasharray:none;stroke-opacity:1" />
      <path
         style="fill:none;fill-opacity:1;stroke:#000000;stroke-width:0.63499999;stroke-linecap:butt;stroke-linejoin:miter;stroke-miterlimit:4;stroke-dasharray:none;stroke-opacity:1"
         d="m -41.545805,166.38648 c 0.714169,-1.18846 1.128819,-2.57805 1.138795,-4.06502 0.0098,-1.4645 -0.374124,-2.83981 -1.052722,-4.02548"
         id="path6944" />
      <path
         style="fill:none;fill-opacity:1;stroke:#000000;stroke-width:0.63499999;stroke-linecap:butt;stroke-linejoin:miter;stroke-miterlimit:4;stroke-dasharray:none;stroke-opacity:1"
         d="m -27.681562,158.36204 c -1.386319,0.0243 -2.797053,-0.31144 -4.0898,-1.04629 -1.273206,-0.72375 -2.272276,-1.74391 -2.9598,-2.92442"
         id="path6946" />
      <path
         id="path6948"
         d="m -27.76762,158.51111 c -0.672149,-1.21272 -1.668249,-2.2666 -2.951021,-3.01873 -1.263377,-0.74075 -2.646415,-1.0959 -4.012521,-1.10105"
         style="fill:none;fill-opacity:1;stroke:#000000;stroke-width:0.63499999;stroke-linecap:butt;stroke-linejoin:miter;stroke-miterlimit:4;stroke-dasharray:none;stroke-opacity:1" />
      <path
         style="fill:none;fill-opacity:1;stroke:#000000;stroke-width:0.63499999;stroke-linecap:butt;stroke-linejoin:miter;stroke-miterlimit:4;stroke-dasharray:none;stroke-opacity:1"
         d="m -27.76762,158.51111 c -0.672149,-1.21272 -1.668249,-2.2666 -2.951021,-3.01873 -1.263377,-0.74075 -2.646415,-1.0959 -4.012521,-1.10105"
         id="path6950" />
      <path
         id="path6952"
         d="m -55.558963,158.29598 c 1.386319,0.0243 2.797069,-0.31144 4.089816,-1.04629 1.27319,-0.72375 2.272276,-1.74391 2.9598,-2.92442"
         style="fill:none;fill-opacity:1;stroke:#000000;stroke-width:0.63499999;stroke-linecap:butt;stroke-linejoin:miter;stroke-miterlimit:4;stroke-dasharray:none;stroke-opacity:1" />
      <path
         id="path6954"
         d="m -55.472889,158.44505 c 0.672149,-1.21271 1.668249,-2.2666 2.951021,-3.01872 1.263377,-0.74075 2.646399,-1.0959 4.012521,-1.10106"
         style="fill:none;fill-opacity:1;stroke:#000000;stroke-width:0.63499999;stroke-linecap:butt;stroke-linejoin:miter;stroke-miterlimit:4;stroke-dasharray:none;stroke-opacity:1" />
      <path
         style="fill:none;fill-opacity:1;stroke:#000000;stroke-width:0.63499999;stroke-linecap:butt;stroke-linejoin:miter;stroke-miterlimit:4;stroke-dasharray:none;stroke-opacity:1"
         d="m -55.507559,142.38467 c 0.67215,1.21272 1.66825,2.2666 2.951022,3.01873 1.263377,0.74075 2.646399,1.0959 4.01252,1.10105"
         id="path6956" />
      <path
         style="fill:none;fill-opacity:1;stroke:#000000;stroke-width:0.63499999;stroke-linecap:butt;stroke-linejoin:miter;stroke-miterlimit:4;stroke-dasharray:none;stroke-opacity:1"
         d="m -55.593632,142.53374 c 1.386319,-0.0243 2.797069,0.31144 4.089816,1.04629 1.27319,0.72375 2.272276,1.74391 2.959799,2.92442"
         id="path6958" />
      <path
         id="path6960"
         d="m -27.590304,142.28079 c -0.672149,1.21272 -1.668249,2.26661 -2.951021,3.01873 -1.263378,0.74075 -2.646399,1.0959 -4.012521,1.10105"
         style="fill:none;fill-opacity:1;stroke:#000000;stroke-width:0.63499999;stroke-linecap:butt;stroke-linejoin:miter;stroke-miterlimit:4;stroke-dasharray:none;stroke-opacity:1" />
      <path
         id="path6962"
         d="m -27.50423,142.42986 c -1.386319,-0.0243 -2.797069,0.31144 -4.089817,1.04629 -1.273189,0.72375 -2.272275,1.74391 -2.959799,2.92442"
         style="fill:none;fill-opacity:1;stroke:#000000;stroke-width:0.63499999;stroke-linecap:butt;stroke-linejoin:miter;stroke-miterlimit:4;stroke-dasharray:none;stroke-opacity:1" />
    </g>
    <g
       style="filter:url(#filter5084)"
       id="tree-right">
      <path
         style="fill:none;fill-rule:evenodd;stroke:#000000;stroke-width:0.63499999;stroke-linecap:round;stroke-linejoin:miter;stroke-miterlimit:4;stroke-dasharray:none;stroke-opacity:1"
         d="m -35.165209,119.99344 c 1.989114,-1.12073 3.045843,-3.52759 2.366171,-5.73383 -0.702405,-2.28004 -3.168153,-3.73663 -5.487269,-2.99343 -1.967911,0.63066 -3.223597,2.77979 -2.54751,4.78537 0.558224,1.65595 2.391835,2.71156 4.083454,2.10159 1.344262,-0.48472 2.201243,-2.00469 1.655673,-3.38155 -0.409326,-1.03302 -1.619287,-1.69418 -2.679636,-1.20975 -0.722536,0.33009 -1.194405,1.23881 -0.763841,1.97772 0.240706,0.41309 0.879705,0.71479 1.275823,0.31793 0.146171,-0.14645 0.217304,-0.65093 -0.127996,-0.57392"
         id="r-02" />
      <path
         style="fill:none;fill-rule:evenodd;stroke:#000000;stroke-width:0.63500011;stroke-linecap:round;stroke-linejoin:miter;stroke-miterlimit:4;stroke-dasharray:none;stroke-opacity:1"
         d="m -37.995901,111.16938 c -1.022184,0.11628 -2.065515,-0.36867 -2.58198,-1.26915 -0.611008,-1.06533 -0.311877,-2.52184 0.797294,-3.1275 0.881415,-0.48129 2.080364,-0.22382 2.55045,0.70479 0.352694,0.69672 0.136669,1.64133 -0.612286,1.97341 -0.510347,0.22628 -1.208283,0.0511 -1.39636,-0.51979 -0.105144,-0.31912 0.03391,-0.79587 0.427278,-0.81931 0.145156,-0.009 0.443691,0.18901 0.24227,0.33477"
         id="path1816" />
      <path
         style="fill:none;fill-rule:evenodd;stroke:#000000;stroke-width:0.63499987;stroke-linecap:round;stroke-linejoin:miter;stroke-miterlimit:4;stroke-dasharray:none;stroke-opacity:1"
         d="m -32.609668,115.37167 c -0.08089,-1.02559 0.439828,-2.05154 1.357622,-2.53658 1.085806,-0.57383 2.531108,-0.22454 3.098075,0.9049 0.450546,0.89752 0.151801,2.08685 -0.792504,2.52457 -0.708488,0.3284 -1.645071,0.0799 -1.951067,-0.68012 -0.208509,-0.51786 -0.0093,-1.20932 0.567725,-1.37756 0.322566,-0.094 0.794222,0.0614 0.80406,0.45533 0.0036,0.14537 -0.204229,0.4369 -0.342946,0.23056"
         id="path1818" />
      <path
         style="fill:none;fill-rule:evenodd;stroke:#000000;stroke-width:0.63499999;stroke-linecap:round;stroke-linejoin:miter;stroke-miterlimit:4;stroke-dasharray:none;stroke-opacity:1"
         d="m -34.767949,111.68921 c -0.747733,-0.96517 -0.898662,-2.32222 -0.303497,-3.40088 0.704116,-1.27612 2.365766,-1.8701 3.663474,-1.11821 1.031238,0.59749 1.508785,1.97222 0.856513,3.02118 -0.489384,0.787 -1.580609,1.14988 -2.378884,0.59481 -0.543954,-0.37824 -0.796235,-1.19412 -0.333108,-1.73659 0.258909,-0.30327 0.828152,-0.45596 1.094294,-0.0714 0.09821,0.1419 0.08165,0.56649 -0.190297,0.452"
         id="path1820" />
      <path
         style="fill:none;fill-rule:evenodd;stroke:#000000;stroke-width:0.63499999;stroke-linecap:round;stroke-linejoin:miter;stroke-miterlimit:4;stroke-dasharray:none;stroke-opacity:1"
         d="m -29.623348,122.04779 c -0.257637,-1.19343 0.192242,-2.48261 1.194851,-3.19851 1.186147,-0.84695 2.941377,-0.66514 3.78717,0.57341 0.672118,0.98423 0.509196,2.4304 -0.532091,3.09484 -0.781252,0.49851 -1.922191,0.35459 -2.402505,-0.49078 -0.327291,-0.57604 -0.202518,-1.42087 0.449458,-1.71017 0.364483,-0.16173 0.94385,-0.0536 1.01784,0.40814 0.0273,0.1704 -0.170979,0.54621 -0.366824,0.32551"
         id="path1822" />
      <path
         style="fill:none;fill-rule:evenodd;stroke:#000000;stroke-width:0.63500005;stroke-linecap:round;stroke-linejoin:miter;stroke-miterlimit:4;stroke-dasharray:none;stroke-opacity:1"
         d="m -37.792224,106.77182 c 0.667186,0.37837 1.524518,0.35052 2.141844,-0.11628 0.730333,-0.55226 0.950643,-1.63872 0.366752,-2.37819 -0.463995,-0.58763 -1.361615,-0.76128 -1.955345,-0.26163 -0.445461,0.37487 -0.573234,1.08593 -0.156508,1.5325 0.283963,0.30431 0.813893,0.38801 1.109664,0.0514 0.165349,-0.18818 0.209238,-0.55583 -0.05374,-0.68682 -0.09704,-0.0483 -0.359561,3e-5 -0.263982,0.15886"
         id="path1824" />
      <path
         style="fill:none;fill-rule:evenodd;stroke:#000000;stroke-width:0.63499993;stroke-linecap:round;stroke-linejoin:miter;stroke-miterlimit:4;stroke-dasharray:none;stroke-opacity:1"
         d="m -25.984648,122.78272 c -0.731524,0.23061 -1.295228,0.87716 -1.374102,1.64708 -0.09331,0.91086 0.551893,1.81232 1.490994,1.8887 0.746267,0.0607 1.48492,-0.47806 1.523677,-1.25308 0.02908,-0.58148 -0.40437,-1.15945 -1.015183,-1.15865 -0.416216,5.4e-4 -0.83852,0.33143 -0.79362,0.77728 0.0251,0.24924 0.264318,0.53184 0.539373,0.42859 0.101498,-0.0381 0.244943,-0.26323 0.06356,-0.30147"
         id="path1826" />
      <path
         style="fill:none;fill-rule:evenodd;stroke:#000000;stroke-width:0.63500011;stroke-linecap:round;stroke-linejoin:miter;stroke-miterlimit:4;stroke-dasharray:none;stroke-opacity:1"
         d="m -24.908088,119.02246 c -0.290075,-0.71004 -0.152962,-1.5568 0.388852,-2.10946 0.640999,-0.65382 1.746701,-0.73358 2.405551,-0.06 0.523562,0.53524 0.581156,1.44769 0.0098,1.97275 -0.42869,0.39394 -1.150239,0.42986 -1.539944,-0.0405 -0.265549,-0.3205 -0.280886,-0.85678 0.09075,-1.10714 0.207758,-0.13997 0.577994,-0.13655 0.674336,0.141 0.03555,0.10242 -0.04595,0.35662 -0.19127,0.24154"
         id="path1828" />
      <path
         style="fill:none;fill-rule:evenodd;stroke:#000000;stroke-width:0.63500005;stroke-linecap:round;stroke-linejoin:miter;stroke-miterlimit:4;stroke-dasharray:none;stroke-opacity:1"
         d="m -29.025892,119.28889 c -0.43311,0.29602 -1.007674,0.36226 -1.484718,0.13212 -0.591422,-0.28532 -0.929514,-1.02668 -0.598769,-1.63101 0.225374,-0.41179 0.78111,-0.65117 1.198275,-0.36587 0.233215,0.15949 0.383789,0.54899 0.132978,0.76554 -0.09255,0.0799 -0.392929,0.10033 -0.332813,-0.0999"
         id="path1830" />
      <path
         style="fill:none;fill-rule:evenodd;stroke:#000000;stroke-width:0.63500011;stroke-linecap:round;stroke-linejoin:miter;stroke-miterlimit:4;stroke-dasharray:none;stroke-opacity:1"
         d="m -27.972574,115.07011 c -0.203513,0.48352 -0.153618,1.05974 0.167194,1.48118 0.39773,0.52249 1.191695,0.70564 1.717753,0.26083 0.358463,-0.30311 0.481974,-0.89547 0.119084,-1.24722 -0.202872,-0.19665 -0.614604,-0.26636 -0.776678,0.0227 -0.05981,0.10665 -0.01979,0.40505 0.164399,0.30614"
         id="path1832" />
      <path
         style="fill:none;fill-rule:evenodd;stroke:#000000;stroke-width:0.63499993;stroke-linecap:round;stroke-linejoin:miter;stroke-miterlimit:4;stroke-dasharray:none;stroke-opacity:1"
         d="m -24.784562,122.20219 c 0.391473,-0.34922 0.952758,-0.48875 1.455424,-0.32184 0.623187,0.20694 1.053758,0.89871 0.803426,1.54053 -0.170579,0.43734 -0.69094,0.74615 -1.141313,0.51684 -0.251779,-0.12819 -0.451164,-0.49511 -0.230266,-0.7421 0.08152,-0.0911 0.376777,-0.14999 0.342895,0.0563"
         id="path1834" />
      <path
         id="path1836"
         d="m -30.283786,109.55537 c 0.168027,-0.67921 0.724358,-1.22946 1.420783,-1.34539 0.823912,-0.13715 1.681595,0.3986 1.804947,1.2492 0.09802,0.67593 -0.350149,1.37929 -1.05352,1.45898 -0.527722,0.0598 -1.07875,-0.3017 -1.113026,-0.85784 -0.02335,-0.37896 0.253696,-0.78239 0.66217,-0.76706 0.228355,0.009 0.499345,0.21016 0.421103,0.46649 -0.02887,0.0946 -0.225607,0.23808 -0.270818,0.0751"
         style="fill:none;fill-rule:evenodd;stroke:#000000;stroke-width:0.63500011;stroke-linecap:round;stroke-linejoin:miter;stroke-miterlimit:4;stroke-dasharray:none;stroke-opacity:1" />
      <path
         id="path1838"
         d="m -27.226615,110.3565 c -0.235157,0.26832 -0.326688,0.65088 -0.210158,0.99173 0.14447,0.42258 0.617504,0.71126 1.052497,0.53717 0.296409,-0.11863 0.50331,-0.47437 0.34466,-0.77928 -0.08869,-0.17047 -0.339421,-0.30387 -0.506072,-0.15216 -0.0615,0.056 -0.09975,0.25714 0.04035,0.23286"
         style="fill:none;fill-rule:evenodd;stroke:#000000;stroke-width:0.63500011;stroke-linecap:round;stroke-linejoin:miter;stroke-miterlimit:4;stroke-dasharray:none;stroke-opacity:1" />
      <path
         style="fill:none;fill-rule:evenodd;stroke:#000000;stroke-width:0.63500011;stroke-linecap:round;stroke-linejoin:miter;stroke-miterlimit:4;stroke-dasharray:none;stroke-opacity:1"
         d="m -39.993378,106.84507 c 0.356692,-0.205 0.620332,-0.56388 0.677939,-0.97462 0.07865,-0.56075 -0.286531,-1.19271 -0.895651,-1.21726 -0.340525,-0.0137 -0.766814,0.25461 -0.680188,0.64481 0.03197,0.14398 0.307854,0.38014 0.39396,0.14311"
         id="path1842" />
      <path
         style="fill:none;fill-rule:evenodd;stroke:#000000;stroke-width:0.63499993;stroke-linecap:round;stroke-linejoin:miter;stroke-miterlimit:4;stroke-dasharray:none;stroke-opacity:1"
         d="m -25.698662,115.88803 c -0.267577,-0.3125 -0.395995,-0.73889 -0.312897,-1.14524 0.113447,-0.55476 0.668972,-1.02817 1.251219,-0.84756 0.325501,0.10096 0.637483,0.49643 0.425331,0.83517 -0.07829,0.12501 -0.417274,0.25528 -0.419137,0.003"
         id="path1844" />
      <path
         style="fill:none;fill-rule:evenodd;stroke:#000000;stroke-width:0.63500011;stroke-linecap:round;stroke-linejoin:miter;stroke-miterlimit:4;stroke-dasharray:none;stroke-opacity:1"
         d="m -32.224837,106.84798 c -0.378233,-0.16185 -0.682063,-0.4874 -0.787346,-0.88858 -0.143735,-0.54769 0.144971,-1.21805 0.747033,-1.31372 0.336579,-0.0535 0.791342,0.16312 0.750979,0.56077 -0.0149,0.14674 -0.261248,0.41356 -0.374503,0.18824"
         id="path1846" />
      <path
         style="fill:none;fill-rule:evenodd;stroke:#000000;stroke-width:0.63499999;stroke-linecap:round;stroke-linejoin:miter;stroke-miterlimit:4;stroke-dasharray:none;stroke-opacity:1"
         d="m -37.150376,103.95586 c -0.36983,0.18022 -0.814814,0.19709 -1.187126,0.0143 -0.508293,-0.24954 -0.826495,-0.90641 -0.505037,-1.42438 0.179709,-0.28957 0.641012,-0.49187 0.91539,-0.20123 0.101249,0.10726 0.141927,0.46813 -0.102588,0.40641"
         id="path1848" />
      <path
         d="m -41.57442,168.33339 c 4.777029,0 9.358414,-1.89767 12.736277,-5.27554 3.377878,-3.37787 5.275538,-7.95925 5.275538,-12.73628 0,-4.77703 -1.89766,-9.35841 -5.275538,-12.73628 -1.860168,-1.86018 -4.085338,-3.27146 -6.683647,-4.21047 -1.25629,-0.38809 -2.007878,-0.96443 -2.506886,-1.53571 -1.691167,-2.2121 -1.26933,-6.02467 -0.630321,-8.33531 0.823441,-2.67293 3.714075,-4.38051 6.432812,-3.50924 2.307013,0.73932 3.779071,3.25878 2.986485,5.60995 -0.654415,1.9413 -2.803984,3.17881 -4.787094,2.46373 -1.575902,-0.56825 -2.580555,-2.35013 -1.940976,-3.96424 0.479861,-1.21103 1.898317,-1.98611 3.14138,-1.41822 0.847041,0.38697 1.400222,1.45228 0.895462,2.31852 -0.282184,0.48427 -1.031291,0.83796 -1.495664,0.37271 -0.171358,-0.17168 -0.254752,-0.76309 0.15005,-0.67281"
         style="fill:none;fill-opacity:0.18292685;stroke:#000000;stroke-width:0.63499999;stroke-linecap:round;stroke-miterlimit:4;stroke-dasharray:none;stroke-dashoffset:0;stroke-opacity:1"
         id="r-01" />
    </g>
  </g>
</svg>
